<?xml version="1.0" encoding="UTF-8" standalone="no"?>
<svg
   xmlns:dc="http://purl.org/dc/elements/1.1/"
   xmlns:cc="http://creativecommons.org/ns#"
   xmlns:rdf="http://www.w3.org/1999/02/22-rdf-syntax-ns#"
   xmlns:svg="http://www.w3.org/2000/svg"
   xmlns="http://www.w3.org/2000/svg"
   xmlns:sodipodi="http://sodipodi.sourceforge.net/DTD/sodipodi-0.dtd"
   xmlns:inkscape="http://www.inkscape.org/namespaces/inkscape"
   viewBox="-80 -80 220 380"
   version="1.1">
  <sodipodi:namedview showgrid="true">
    <inkscape:grid
       type="xygrid"
       empspacing="4"
       spacingx="5"
       spacingy="5" />
  </sodipodi:namedview>
  <rect stroke="black" stroke-width="4" fill="#ffffb4" fill-opacity="0.78431374" x="0" y="-10" width="60" height="240"/>
    <text id="label" fill="#000000" font-size="24" text-anchor="middle" x="30" y="-20">Label</text>
  <g>
    <circle fill="#0000b2" id="pin:D0" cx="0" cy="0" r="3"/>
    <text fill="#808080" font-size="18" x="4" y="6">D0</text>
  </g>
  <g>
    <circle fill="#0000b2" id="pin:D1" cx="0" cy="20" r="3"/>
    <text fill="#808080" font-size="18" x="4" y="26">D1</text>
  </g>
  <g>
    <circle fill="#0000b2" id="pin:D2" cx="0" cy="40" r="3"/>
    <text fill="#808080" font-size="18" x="4" y="46">D2</text>
  </g>
  <g>
    <circle fill="#0000b2" id="pin:D4" cx="0" cy="60" r="3"/>
    <text fill="#808080" font-size="18" x="4" y="66">D4</text>
  </g>
  <g>
    <circle fill="#0000b2" id="pin:D5" cx="0" cy="80" r="3"/>
    <text fill="#808080" font-size="18" x="4" y="86">D5</text>
  </g>
  <g>
    <circle fill="#0000b2" id="pin:D6" cx="0" cy="100" r="3"/>
    <text fill="#808080" font-size="18" x="4" y="106">D6</text>
  </g>
  <g>
    <circle fill="#0000b2" id="pin:D7" cx="0" cy="120" r="3"/>
    <text fill="#808080" font-size="18" x="4" y="126">D7</text>
  </g>
  <g>
    <circle fill="#0000b2" id="pin:D8" cx="0" cy="140" r="3"/>
    <text fill="#808080" font-size="18" x="4" y="146">D8</text>
  </g>
  <g>
    <circle fill="#0000b2" id="pin:CLK" cx="0" cy="160" r="3"/>
    <text fill="#808080" font-size="18" x="4" y="166">CLK</text>
  </g>
  <g>
    <circle fill="#0000b2" id="pin:DE" cx="0" cy="180" r="3"/>
    <text fill="#808080" font-size="18" x="4" y="186">DE</text>
  </g>
  <g>
    <circle fill="#0000b2" id="pin:RES" cx="0" cy="200" r="3"/>
    <text fill="#808080" font-size="18" x="4" y="206">RES</text>
  </g>
  <g>
    <circle fill="#0000b2" id="pin:OE" cx="0" cy="220" r="3"/>
    <text fill="#808080" font-size="18" x="4" y="226">OE</text>
  </g>
  <g>
    <circle fill="#b20000" id="pin:Q0" cx="60" cy="0" r="3"/>
    <text fill="#808080" font-size="18" text-anchor="end" x="56" y="6">Q0</text>
  </g>
  <g>
    <circle fill="#b20000" id="pin:Q1" cx="60" cy="20" r="3"/>
    <text fill="#808080" font-size="18" text-anchor="end" x="56" y="26">Q1</text>
  </g>
  <g>
    <circle fill="#b20000" id="pin:Q3" cx="60" cy="40" r="3"/>
    <text fill="#808080" font-size="18" text-anchor="end" x="56" y="46">Q3</text>
  </g>
  <g>
    <circle fill="#b20000" id="pin:Q4" cx="60" cy="60" r="3"/>
    <text fill="#808080" font-size="18" text-anchor="end" x="56" y="66">Q4</text>
  </g>
  <g>
    <circle fill="#b20000" id="pin:Q5" cx="60" cy="80" r="3"/>
    <text fill="#808080" font-size="18" text-anchor="end" x="56" y="86">Q5</text>
  </g>
  <g>
    <circle fill="#b20000" id="pin:Q6" cx="60" cy="100" r="3"/>
    <text fill="#808080" font-size="18" text-anchor="end" x="56" y="106">Q6</text>
  </g>
  <g>
    <circle fill="#b20000" id="pin:Q7" cx="60" cy="120" r="3"/>
    <text fill="#808080" font-size="18" text-anchor="end" x="56" y="126">Q7</text>
  </g>
  <g>
    <circle fill="#b20000" id="pin:Q8" cx="60" cy="140" r="3"/>
    <text fill="#808080" font-size="18" text-anchor="end" x="56" y="146">Q8</text>
  </g>
</svg>
